<?xml version="1.0" encoding="utf-8"?>
<!-- Generator: Adobe Illustrator 23.0.3, SVG Export Plug-In . SVG Version: 6.00 Build 0)  -->
<svg version="1.1" id="Layer_1" xmlns="http://www.w3.org/2000/svg" xmlns:xlink="http://www.w3.org/1999/xlink" x="0px" y="0px"
	 viewBox="0 0 150 150" style="enable-background:new 0 0 150 150;" xml:space="preserve">
<style type="text/css">
	.st0{fill:#FFFFFF;}
</style>
<path class="st0" d="M147.35,128.23l-40.39-40.39c0,0-0.01-0.01-0.02-0.01c5.22-8.66,8.22-18.81,8.22-29.66
	c0-31.8-25.78-57.58-57.58-57.58S0,26.37,0,58.17s25.78,57.58,57.58,57.58c11.46,0,22.13-3.36,31.1-9.13l40.14,40.14
	c3.54,3.54,9.32,3.54,12.86,0l5.67-5.67C150.88,137.56,150.88,131.77,147.35,128.23z M58.34,101.36
	c-24.27,0-43.95-19.68-43.95-43.95c0-24.27,19.68-43.95,43.95-43.95c24.27,0,43.95,19.68,43.95,43.95
	C102.29,81.68,82.61,101.36,58.34,101.36z"/>
</svg>
