<?xml version="1.0" encoding="utf-8"?>
<!-- Generator: Adobe Illustrator 23.0.3, SVG Export Plug-In . SVG Version: 6.00 Build 0)  -->
<svg version="1.1" id="Layer_1" xmlns="http://www.w3.org/2000/svg" xmlns:xlink="http://www.w3.org/1999/xlink" x="0px" y="0px"
	 viewBox="0 0 144.67 118" style="enable-background:new 0 0 144.67 118;" xml:space="preserve">
<style type="text/css">
	.st0{fill:#025881;}
</style>
<path class="st0" d="M45.89,64.2c-20.18,5-24.8,16.33-31.46,27.11c0,0,22.73-26.99,44.91-11.35c1.09,0.76,3.46,3.16,3.68,3.8
	c0,0,2.24-1.92-2.01-5.76c-7.31-6.58,6.35,10.61,37.07-6.2c7.84-5.97,2.27-0.1-7.07-4.93c0,0,33.45,4.7,38.95-29.01
	c0,0-3.52,19.35-48.94,22.75C69.47,61.47,53.4,62.34,45.89,64.2z"/>
<path class="st0" d="M93.5,54.64c23.94-4.26,41.04-18.5,40.57-39.34c-0.03-1.46,0.06,0.2,0.06,0.2s-8.32,21.85-49.38,26.89
	c-1.09,0.14-2.13,0.27-3.15,0.41c-0.79-4.99-5.48-8.78-4.21-7.13c2.15,7.36-18.31,8.76-18.31,8.76
	c-44.05,6.06-49.89,61.32-49.89,61.32C23.13,51.74,53.86,61.69,93.5,54.64z"/>
</svg>
